<svg width="20" height="20" viewBox="0 0 20 20" fill="none" xmlns="http://www.w3.org/2000/svg">
<path d="M4.8635 17.3553C4.97389 17.7369 5.32704 18 5.72887 18H14.2711C14.673 18 15.0261 17.7369 15.1365 17.3553L17.0879 10.6096C17.3031 9.86591 16.5205 9.22444 15.8201 9.57033L13.955 10.4914C13.5104 10.7109 12.9698 10.5329 12.7475 10.0938L10.805 6.25676C10.4733 5.60161 9.52669 5.60161 9.19502 6.25676L7.25249 10.0938C7.0302 10.5329 6.4896 10.7109 6.04502 10.4914L4.17992 9.57033C3.4795 9.22444 2.69692 9.86591 2.91206 10.6096L4.8635 17.3553Z" fill="#242424" fill-opacity="0.5"/>
<path d="M2.35 8.66667C3.09558 8.66667 3.7 8.06971 3.7 7.33333C3.7 6.59695 3.09558 6 2.35 6C1.60442 6 1 6.59695 1 7.33333C1 8.06971 1.60442 8.66667 2.35 8.66667Z" fill="#242424" fill-opacity="0.5"/>
<path d="M10 4.66667C10.7456 4.66667 11.35 4.06971 11.35 3.33333C11.35 2.59695 10.7456 2 10 2C9.25442 2 8.65 2.59695 8.65 3.33333C8.65 4.06971 9.25442 4.66667 10 4.66667Z" fill="#242424" fill-opacity="0.5"/>
<path d="M17.65 8.66667C18.3956 8.66667 19 8.06971 19 7.33333C19 6.59695 18.3956 6 17.65 6C16.9044 6 16.3 6.59695 16.3 7.33333C16.3 8.06971 16.9044 8.66667 17.65 8.66667Z" fill="#242424" fill-opacity="0.5"/>
</svg>
